<svg width="150" height="125" viewBox="0 0 150 125" fill="none" xmlns="http://www.w3.org/2000/svg">
<g id="Frame 36" clip-path="url(#clip0_2_6704)">
<path id="Vector 11" d="M147.891 125C152.48 111.353 152.582 81.4995 116.282 71.2641C90.4865 63.9907 78.0957 51.9796 72.9623 42.5762C69.7118 36.6218 68.8102 29.4706 64.7769 24.0159C54.1337 9.62221 31.7782 -2.95042 -2 23.1576" stroke="white" stroke-width="2"/>
<path id="Vector 12" d="M130.891 138C135.48 125.636 135.582 98.5893 99.2816 89.3162C74.9952 83.1121 62.5909 73.103 56.9387 64.8432C52.7603 58.7371 51.6026 50.7873 46.7015 45.2445C35.6678 32.766 13.6799 22.8482 -19 45.7326" stroke="white" stroke-width="2"/>
<path id="Vector 13" d="M116.891 157C121.48 145.102 121.582 119.076 85.2816 110.153C61.6082 104.334 49.2247 95.0358 43.3797 87.2088C38.803 81.0802 37.5068 72.7956 32.239 67.2497C21.0596 55.48 -0.770549 46.4971 -33 68.2144" stroke="white" stroke-width="2"/>
<path id="Vector 14" d="M91.8912 168C96.4797 156.102 96.5817 130.076 60.2816 121.153C36.6082 115.334 24.2247 106.036 18.3797 98.2088C13.803 92.0802 12.5068 83.7956 7.23901 78.2497C-3.94036 66.48 -25.7705 57.4971 -58 79.2144" stroke="white" stroke-width="2"/>
</g>
<defs>
<clipPath id="clip0_2_6704">
<rect width="150" height="125" fill="white" transform="matrix(-1 0 0 -1 150 125)"/>
</clipPath>
</defs>
</svg>
