<svg width="221" height="220" viewBox="0 0 221 220" fill="none" xmlns="http://www.w3.org/2000/svg">
<g id="Graph">
<path id="Ellipse 6" d="M220.5 110C220.5 170.751 171.251 220 110.5 220C49.7487 220 0.5 170.751 0.5 110C0.5 49.2487 49.7487 0 110.5 0C171.251 0 220.5 49.2487 220.5 110ZM33.5 110C33.5 152.526 67.9741 187 110.5 187C153.026 187 187.5 152.526 187.5 110C187.5 67.4741 153.026 33 110.5 33C67.9741 33 33.5 67.4741 33.5 110Z" fill="white"/>
<path id="Ellipse 7" d="M44.3855 176.114C37.9419 182.558 27.3757 182.619 21.9674 175.284C8.62684 157.193 1.06631 135.327 0.530533 112.592C-0.135662 84.3227 10.11 56.883 29.1406 35.9686C48.1712 15.0543 74.5249 2.2718 102.731 0.274693C130.937 -1.72241 158.829 7.21927 180.617 25.2435C202.404 43.2678 216.414 68.9901 219.738 97.0709C223.061 125.152 215.443 153.434 198.465 176.046C181.487 198.659 156.454 213.865 128.561 218.507C106.128 222.241 83.2316 218.912 62.9613 209.198C54.7436 205.259 52.8231 194.869 57.9452 187.332C63.0673 179.795 73.2985 178.031 81.7524 181.433C94.7755 186.673 109.089 188.294 123.142 185.955C142.668 182.705 160.191 172.061 172.076 156.232C183.96 140.404 189.293 120.606 186.966 100.95C184.64 81.2931 174.833 63.2875 159.582 50.6705C144.33 38.0535 124.806 31.7943 105.062 33.1923C85.3174 34.5903 66.8698 43.538 53.5484 58.178C40.227 72.8181 33.055 92.0259 33.5214 111.814C33.857 126.057 38.1313 139.813 45.7195 151.624C50.6453 159.29 50.8292 169.671 44.3855 176.114Z" fill="url(#paint0_linear_2_6646)"/>
</g>
<defs>
<linearGradient id="paint0_linear_2_6646" x1="0.5" y1="110" x2="220.5" y2="110" gradientUnits="userSpaceOnUse">
<stop stop-color="#FA709A"/>
<stop offset="1" stop-color="#FEE140"/>
</linearGradient>
</defs>
</svg>
