<svg width="60" height="60" viewBox="0 0 60 60" fill="none" xmlns="http://www.w3.org/2000/svg">
<g id="Group 1">
<path id="Vector" d="M45.785 26.3324C44.9322 27.1903 44.2793 28.2258 43.8725 29.3647C43.4657 30.5039 43.3152 31.7187 43.4315 32.9226L43.391 32.8821C43.5107 34.2994 43.3194 35.7255 42.831 37.0613C42.3425 38.3969 41.5685 39.6099 40.563 40.6156C39.5572 41.6211 38.3442 42.3954 37.0084 42.8836C35.6728 43.3721 34.2465 43.5633 32.8295 43.4436L32.87 43.4841C31.1748 43.3264 29.4723 43.6952 27.9942 44.5405C26.5164 45.3858 25.3352 46.6663 24.6118 48.2076C23.8884 49.7488 23.6578 51.4755 23.9517 53.1526C24.2457 54.8295 25.0497 56.3751 26.2541 57.5784C27.4585 58.7817 29.0047 59.5842 30.6819 59.8765C32.3592 60.169 34.0857 59.9368 35.6262 59.2121C37.1668 58.4871 38.4462 57.305 39.2901 55.8263C40.1341 54.3476 40.5015 52.6448 40.3422 50.9496L40.385 50.9901C40.2653 49.5731 40.4563 48.1468 40.9448 46.811C41.4333 45.4754 42.2075 44.2624 43.213 43.2567C44.2188 42.2511 45.4317 41.4769 46.7673 40.9887C48.1032 40.5002 49.5292 40.3089 50.9465 40.4286L50.9037 40.3881C52.2884 40.5126 53.6823 40.2855 54.956 39.728C56.2295 39.1704 57.3419 38.3004 58.1897 37.1985C59.0375 36.0967 59.5937 34.7985 59.8061 33.4246C60.0187 32.0505 59.881 30.6452 59.4058 29.3384C58.9306 28.0318 58.1332 26.8663 57.0876 25.9499C56.0421 25.0335 54.7821 24.3958 53.4244 24.0961C52.0668 23.7964 50.6553 23.8441 49.3211 24.2349C47.9868 24.626 46.773 25.3473 45.7917 26.3324H45.785Z" fill="white"/>
<path id="Vector_2" d="M29.1868 38.1784L29.144 38.1379C30.3485 38.2591 31.5648 38.1113 32.7053 37.705C33.8456 37.2986 34.8815 36.6441 35.7379 35.7884C36.594 34.9327 37.2497 33.8973 37.6567 32.7572C38.0639 31.6171 38.2127 30.401 38.0923 29.1964L38.135 29.2369C38.0153 27.8196 38.2066 26.3935 38.6948 25.0577C39.1833 23.7221 39.9575 22.5091 40.9631 21.5034C41.9688 20.4979 43.1818 19.7236 44.5174 19.2354C45.8532 18.7468 47.2793 18.5557 48.6965 18.6754L48.6538 18.6349C50.3492 18.7942 52.0522 18.4264 53.5309 17.5821C55.0098 16.7378 56.192 15.4578 56.9165 13.9168C57.641 12.3759 57.8725 10.649 57.5795 8.97157C57.2866 7.29417 56.4833 5.74801 55.2791 4.54395C54.0752 3.33991 52.529 2.53657 50.8516 2.24357C49.1742 1.95055 47.4473 2.1821 45.9063 2.90665C44.3653 3.63117 43.0855 4.81343 42.2411 6.29215C41.3966 7.77085 41.029 9.47404 41.1883 11.1694L41.1478 11.1266C41.2677 12.5439 41.0769 13.9702 40.5887 15.3061C40.1004 16.642 39.3262 17.8552 38.3207 18.861C37.3149 19.8665 36.1017 20.6407 34.7659 21.129C33.4298 21.6172 32.0036 21.808 30.5863 21.6881L30.6268 21.7309C29.4224 21.6096 28.2058 21.7574 27.0655 22.1638C25.9252 22.5699 24.8893 23.2246 24.0329 24.0803C23.1766 24.936 22.5212 25.9714 22.1139 27.1115C21.7069 28.2516 21.5582 29.4677 21.6785 30.6724L21.638 30.6319C21.7573 32.0489 21.5658 33.475 21.0773 34.8106C20.5886 36.1459 19.8146 37.3589 18.8091 38.3644C17.8035 39.37 16.5907 40.144 15.2551 40.6327C13.9196 41.1211 12.4936 41.3126 11.0765 41.1934L11.117 41.2339C9.4217 41.0746 7.71852 41.4422 6.2398 42.2866C4.7611 43.1311 3.57883 44.4109 2.85431 45.9519C2.12977 47.4929 1.8982 49.2198 2.19121 50.8972C2.48423 52.5745 3.28757 54.1207 4.49161 55.3247C5.69568 56.5289 7.24183 57.3322 8.91923 57.6251C10.5966 57.9181 12.3236 57.6865 13.8645 56.962C15.4055 56.2375 16.6854 55.0554 17.5298 53.5767C18.3742 52.0978 18.7418 50.3947 18.5825 48.6994L18.6253 48.7399C18.5056 47.3226 18.6968 45.8965 19.1853 44.5607C19.6736 43.2251 20.4478 42.0121 21.4533 41.0064C22.4591 40.0009 23.672 39.2266 25.0076 38.7384C26.3435 38.2499 27.7695 38.0587 29.1868 38.1784Z" fill="white"/>
<path id="Vector_3" d="M14.1073 33.6632C14.9601 32.8055 15.613 31.77 16.0194 30.6308C16.4259 29.4917 16.5758 28.2767 16.4585 27.0729L16.5013 27.1134C16.3815 25.6959 16.5727 24.2692 17.0614 22.9331C17.5502 21.5971 18.3247 20.3839 19.3309 19.3781C20.3371 18.3724 21.5505 17.5985 22.8868 17.1103C24.223 16.6222 25.6498 16.4316 27.0673 16.5519L27.0245 16.5114C28.7192 16.6702 30.4218 16.3023 31.8998 15.4581C33.3778 14.6138 34.5593 13.3341 35.2836 11.7937C36.0076 10.2532 36.2389 8.52688 35.946 6.85011C35.653 5.17335 34.8498 3.62778 33.6463 2.42416C32.4427 1.22055 30.897 0.417475 29.2203 0.12448C27.5436 -0.168537 25.8172 0.0628076 24.2768 0.786903C22.7362 1.511 21.4567 2.69263 20.6125 4.17066C19.768 5.64868 19.4002 7.35117 19.559 9.04591L19.5185 9.00541C19.6382 10.4226 19.447 11.8488 18.9585 13.1845C18.47 14.5202 17.6961 15.7332 16.6904 16.7388C15.6848 17.7445 14.4718 18.5185 13.1361 19.0069C11.8004 19.4954 10.3742 19.6866 8.95702 19.5669L8.99752 19.6074C7.6128 19.4832 6.21913 19.7107 4.94568 20.2685C3.67222 20.8262 2.56016 21.6965 1.71256 22.7986C0.864965 23.9004 0.30926 25.1987 0.096905 26.5725C-0.115427 27.9466 0.022475 29.3519 0.497833 30.6583C0.97319 31.9649 1.77066 33.1301 2.8163 34.0463C3.86194 34.9628 5.12194 35.6002 6.47955 35.8999C7.83713 36.1994 9.2484 36.1514 10.5826 35.7606C11.9167 35.3696 13.1306 34.6482 14.1118 33.6632H14.1073Z" fill="white"/>
</g>
</svg>
