<svg width="80" height="80" viewBox="0 0 80 80" fill="none" xmlns="http://www.w3.org/2000/svg">
<path id="Dawn" d="M40 0L40.0077 39.9606L55.3074 3.04481L40.0223 39.9668L68.2842 11.7157L40.0332 39.9777L76.9552 24.6926L40.0394 39.9923L80 40L40.0394 40.0077L76.9552 55.3074L40.0332 40.0223L68.2842 68.2842L40.0223 40.0332L55.3074 76.9552L40.0077 40.0394L40 80L39.9923 40.0394L24.6926 76.9552L39.9777 40.0332L11.7157 68.2842L39.9668 40.0223L3.04481 55.3074L39.9606 40.0077L0 40L39.9606 39.9923L3.04481 24.6926L39.9668 39.9777L11.7157 11.7157L39.9777 39.9668L24.6926 3.04481L39.9923 39.9606L40 0Z" fill="#64C661" stroke="#64C661" stroke-width="4"/>
</svg>
