<svg width="20" height="20" viewBox="0 0 20 20" fill="none" xmlns="http://www.w3.org/2000/svg">
<g id="vuesax/bold/sun">
<g id="sun">
<path id="Vector" d="M10 15.8333C13.2217 15.8333 15.8334 13.2216 15.8334 9.99996C15.8334 6.7783 13.2217 4.16663 10 4.16663C6.77836 4.16663 4.16669 6.7783 4.16669 9.99996C4.16669 13.2216 6.77836 15.8333 10 15.8333Z" fill="#FFF194"/>
<path id="Vector_2" d="M9.99998 19.1334C9.54165 19.1334 9.16665 18.7917 9.16665 18.3334V18.2667C9.16665 17.8084 9.54165 17.4334 9.99998 17.4334C10.4583 17.4334 10.8333 17.8084 10.8333 18.2667C10.8333 18.725 10.4583 19.1334 9.99998 19.1334ZM15.95 16.7834C15.7333 16.7834 15.525 16.7 15.3583 16.5417L15.25 16.4334C14.925 16.1084 14.925 15.5834 15.25 15.2584C15.575 14.9334 16.1 14.9334 16.425 15.2584L16.5333 15.3667C16.8583 15.6917 16.8583 16.2167 16.5333 16.5417C16.375 16.7 16.1666 16.7834 15.95 16.7834ZM4.04998 16.7834C3.83331 16.7834 3.62498 16.7 3.45831 16.5417C3.13331 16.2167 3.13331 15.6917 3.45831 15.3667L3.56665 15.2584C3.89165 14.9334 4.41665 14.9334 4.74165 15.2584C5.06665 15.5834 5.06665 16.1084 4.74165 16.4334L4.63331 16.5417C4.47498 16.7 4.25831 16.7834 4.04998 16.7834ZM18.3333 10.8334H18.2666C17.8083 10.8334 17.4333 10.4584 17.4333 10C17.4333 9.54171 17.8083 9.16671 18.2666 9.16671C18.725 9.16671 19.1333 9.54171 19.1333 10C19.1333 10.4584 18.7916 10.8334 18.3333 10.8334ZM1.73331 10.8334H1.66665C1.20831 10.8334 0.833313 10.4584 0.833313 10C0.833313 9.54171 1.20831 9.16671 1.66665 9.16671C2.12498 9.16671 2.53331 9.54171 2.53331 10C2.53331 10.4584 2.19165 10.8334 1.73331 10.8334ZM15.8416 4.99171C15.625 4.99171 15.4166 4.90837 15.25 4.75004C14.925 4.42504 14.925 3.90004 15.25 3.57504L15.3583 3.46671C15.6833 3.14171 16.2083 3.14171 16.5333 3.46671C16.8583 3.79171 16.8583 4.31671 16.5333 4.64171L16.425 4.75004C16.2666 4.90837 16.0583 4.99171 15.8416 4.99171ZM4.15831 4.99171C3.94165 4.99171 3.73331 4.90837 3.56665 4.75004L3.45831 4.63337C3.13331 4.30837 3.13331 3.78337 3.45831 3.45837C3.78331 3.13337 4.30831 3.13337 4.63331 3.45837L4.74165 3.56671C5.06665 3.89171 5.06665 4.41671 4.74165 4.74171C4.58331 4.90837 4.36665 4.99171 4.15831 4.99171ZM9.99998 2.53337C9.54165 2.53337 9.16665 2.19171 9.16665 1.73337V1.66671C9.16665 1.20837 9.54165 0.833374 9.99998 0.833374C10.4583 0.833374 10.8333 1.20837 10.8333 1.66671C10.8333 2.12504 10.4583 2.53337 9.99998 2.53337Z" fill="#FFF194"/>
</g>
</g>
</svg>
